# xmcd
#
# Track frame offsets: 
#        150
#        10808
#        34606
#        46488
#        59198
#        72016
#        84330
#        98984
#        113350
#        128256
#        140930
#        152740
#        164982
#        178268
#        197998
#        220536
#        234578
#        247180
#        266298
#
# Disc length: 3989 seconds
#
# Revision: 0
# Processed by: cddbd v1.5.2PL0 Copyright (c) Steve Scherf et al.
# Submitted via: ExactAudioCopy v1.3
#
DISCID=100f9313
DTITLE=Wendel Adkins - Live @ Gilley's and If That Ain't Country *
DYEAR=1900
DGENRE=Country
TTITLE0=Where'd You Stay Last Night
TTITLE1=Don't Think Twice,It's Allright
TTITLE2=I've Got A Thing About You Baby
TTITLE3=I'm Falling For You
TTITLE4=Mamma's Don't Let Your Cowboy's Grow Up To Be Baby's
TTITLE5=So You Want To Be A Cowboy Singer
TTITLE6=Three Quarter Time
TTITLE7=The Wreck Of The Old '97
TTITLE8=I Don't Want To Hear It Anymore
TTITLE9=Good Lookin' Texas Women
TTITLE10=Rodeo Cowboys *
TTITLE11=Back To Back *
TTITLE12=Bright Morning Light *
TTITLE13=If That Ain't Country *
TTITLE14=Lonesome On'ry And Mean *
TTITLE15=I Came Here To Party *
TTITLE16=What A Way To Go *
TTITLE17=Willie,Waylon And Me *
TTITLE18=Medley:Funny How Time Slips Away,Crazy,Nightlife *
EXTD=
EXTT0=
EXTT1=
EXTT2=
EXTT3=
EXTT4=
EXTT5=
EXTT6=
EXTT7=
EXTT8=
EXTT9=
EXTT10=
EXTT11=
EXTT12=
EXTT13=
EXTT14=
EXTT15=
EXTT16=
EXTT17=
EXTT18=
PLAYORDER=
